<svg width="106" height="20" viewBox="0 0 106 20" fill="none" xmlns="http://www.w3.org/2000/svg">
<path d="M0 20V0L3.33333 3.33333V16.1905H23.8095V3.33333L27.1429 0V20H0Z" fill="white"/>
<path d="M7.61908 11.9048V0L10.9524 3.33333V8.57143H16.1905V3.33333L19.5238 0V11.9048H7.61908Z" fill="white"/>
<path d="M97.524 17.8564C97.3131 17.9756 97.0787 18.0352 96.8209 18.0352C96.5211 18.0352 96.2784 17.9385 96.0929 17.7451C95.9083 17.5518 95.816 17.2959 95.816 16.9775C95.816 16.6523 95.9186 16.3857 96.1237 16.1777C96.3297 15.9688 96.5905 15.8643 96.9059 15.8643C97.1344 15.8643 97.3263 15.9014 97.4816 15.9756V16.248C97.3116 16.1406 97.1105 16.0869 96.8781 16.0869C96.6427 16.0869 96.4498 16.168 96.2994 16.3301C96.149 16.4922 96.0739 16.7021 96.0739 16.96C96.0739 17.2256 96.1437 17.4346 96.2833 17.5869C96.423 17.7383 96.6124 17.814 96.8517 17.814C97.0157 17.814 97.1578 17.7812 97.278 17.7158V17.127H96.818V16.9043H97.524V17.8564Z" fill="white"/>
<path d="M95.2589 18H94.9572L93.8761 16.3257C93.8488 16.2837 93.8263 16.2397 93.8087 16.1938H93.7999C93.8077 16.2388 93.8116 16.335 93.8116 16.4824V18H93.5656V15.8994H93.8849L94.9366 17.5474C94.9806 17.6157 95.0089 17.6626 95.0216 17.688H95.0275C95.0177 17.6274 95.0128 17.5244 95.0128 17.3789V15.8994H95.2589V18Z" fill="white"/>
<path d="M92.8679 18H92.6218V15.8994H92.8679V18Z" fill="white"/>
<path d="M92.1877 18H91.8948L91.5432 17.4111C91.511 17.3564 91.4797 17.3101 91.4495 17.272C91.4192 17.2329 91.3879 17.2012 91.3557 17.1768C91.3245 17.1523 91.2903 17.1348 91.2532 17.124C91.217 17.1123 91.176 17.1064 91.1301 17.1064H90.928V18H90.6819V15.8994H91.3088C91.4006 15.8994 91.4851 15.9111 91.5623 15.9346C91.6404 15.957 91.7078 15.9917 91.7644 16.0386C91.822 16.0854 91.8669 16.144 91.8992 16.2144C91.9314 16.2837 91.9475 16.3652 91.9475 16.459C91.9475 16.5322 91.9363 16.5996 91.9138 16.6611C91.8923 16.7217 91.8611 16.7759 91.8201 16.8237C91.78 16.8716 91.7312 16.9126 91.6736 16.9468C91.6169 16.98 91.553 17.0059 91.4817 17.0244V17.0303C91.5168 17.0459 91.5471 17.064 91.5725 17.0845C91.5989 17.104 91.6238 17.1274 91.6472 17.1548C91.6707 17.1821 91.6936 17.2134 91.7161 17.2485C91.7395 17.2827 91.7654 17.3228 91.7937 17.3687L92.1877 18ZM90.928 16.1221V16.8838H91.262C91.3235 16.8838 91.3801 16.8745 91.4319 16.856C91.4846 16.8374 91.53 16.811 91.5681 16.7769C91.6062 16.7417 91.636 16.6992 91.6575 16.6494C91.679 16.5986 91.6897 16.542 91.6897 16.4795C91.6897 16.3672 91.6531 16.2798 91.5798 16.2173C91.5076 16.1538 91.4026 16.1221 91.2649 16.1221H90.928Z" fill="white"/>
<path d="M90.1335 18H89.0203V15.8994H90.0867V16.1221H89.2664V16.8208H90.0251V17.042H89.2664V17.7773H90.1335V18Z" fill="white"/>
<path d="M88.5628 15.8994L87.9695 18H87.681L87.2488 16.4648C87.2303 16.3994 87.2191 16.3281 87.2151 16.251H87.2093C87.2034 16.3232 87.1907 16.3936 87.1712 16.4619L86.7361 18H86.4505L85.8353 15.8994H86.1063L86.553 17.5107C86.5716 17.5781 86.5833 17.6484 86.5882 17.7217H86.5955C86.6004 17.6699 86.6155 17.5996 86.6409 17.5107L87.1053 15.8994H87.3411L87.7864 17.5225C87.8021 17.5781 87.8138 17.6436 87.8216 17.7188H87.8275C87.8314 17.668 87.8445 17.6006 87.867 17.5166L88.2962 15.8994H88.5628Z" fill="white"/>
<path d="M84.5868 18.0352C84.2889 18.0352 84.0502 17.937 83.8705 17.7407C83.6918 17.5444 83.6024 17.2891 83.6024 16.9746C83.6024 16.6367 83.6937 16.3672 83.8763 16.166C84.059 15.9648 84.3075 15.8643 84.6219 15.8643C84.912 15.8643 85.1454 15.9619 85.3221 16.1572C85.4999 16.3525 85.5887 16.6079 85.5887 16.9233C85.5887 17.2661 85.4979 17.5371 85.3163 17.7363C85.1346 17.9355 84.8915 18.0352 84.5868 18.0352ZM84.6044 16.0869C84.3837 16.0869 84.2045 16.1665 84.0668 16.3257C83.9291 16.4849 83.8602 16.6938 83.8602 16.9526C83.8602 17.2114 83.9271 17.4199 84.0609 17.5781C84.1957 17.7354 84.371 17.814 84.5868 17.814C84.8173 17.814 84.9989 17.7388 85.1317 17.5884C85.2645 17.438 85.3309 17.2275 85.3309 16.957C85.3309 16.6797 85.2665 16.4653 85.1376 16.314C85.0087 16.1626 84.8309 16.0869 84.6044 16.0869Z" fill="white"/>
<path d="M82.1605 17.2061V18H81.9144V15.8994H82.4916C82.7162 15.8994 82.89 15.9541 83.0131 16.0635C83.1371 16.1729 83.1991 16.3271 83.1991 16.5264C83.1991 16.7256 83.1302 16.8887 82.9926 17.0156C82.8558 17.1426 82.6708 17.2061 82.4374 17.2061H82.1605ZM82.1605 16.1221V16.9834H82.4183C82.5883 16.9834 82.7177 16.9448 82.8065 16.8677C82.8964 16.7896 82.9413 16.6797 82.9413 16.5381C82.9413 16.2607 82.7772 16.1221 82.4491 16.1221H82.1605Z" fill="white"/>
<path d="M81.2167 18H80.9721V16.5908C80.9721 16.4795 80.9789 16.3433 80.9926 16.1821H80.9868C80.9633 16.2769 80.9423 16.3447 80.9238 16.3857L80.206 18H80.0859L79.3696 16.3975C79.3491 16.3506 79.3281 16.2788 79.3066 16.1821H79.3007C79.3085 16.2661 79.3124 16.4033 79.3124 16.5938V18H79.0751V15.8994H79.4003L80.0449 17.3643C80.0947 17.4766 80.1269 17.5605 80.1415 17.6162H80.1503C80.1923 17.501 80.226 17.415 80.2514 17.3584L80.9091 15.8994H81.2167V18Z" fill="white"/>
<path d="M78.5269 18H77.4136V15.8994H78.48V16.1221H77.6597V16.8208H78.4185V17.042H77.6597V17.7773H78.5269V18Z" fill="white"/>
<path d="M75.7779 18.7061H75.5611V15.7061H75.7779V18.7061Z" fill="white"/>
<path d="M73.984 17.8564C73.7731 17.9756 73.5387 18.0352 73.2809 18.0352C72.9811 18.0352 72.7384 17.9385 72.5529 17.7451C72.3683 17.5518 72.276 17.2959 72.276 16.9775C72.276 16.6523 72.3785 16.3857 72.5836 16.1777C72.7897 15.9688 73.0504 15.8643 73.3658 15.8643C73.5944 15.8643 73.7863 15.9014 73.9415 15.9756V16.248C73.7716 16.1406 73.5704 16.0869 73.338 16.0869C73.1027 16.0869 72.9098 16.168 72.7594 16.3301C72.609 16.4922 72.5338 16.7021 72.5338 16.96C72.5338 17.2256 72.6036 17.4346 72.7433 17.5869C72.8829 17.7383 73.0724 17.814 73.3116 17.814C73.4757 17.814 73.6178 17.7812 73.7379 17.7158V17.127H73.278V16.9043H73.984V17.8564Z" fill="white"/>
<path d="M71.719 18H71.4172L70.3362 16.3257C70.3088 16.2837 70.2864 16.2397 70.2688 16.1938H70.26C70.2678 16.2388 70.2717 16.335 70.2717 16.4824V18H70.0256V15.8994H70.345L71.3967 17.5474C71.4407 17.6157 71.469 17.6626 71.4817 17.688H71.4876C71.4778 17.6274 71.4729 17.5244 71.4729 17.3789V15.8994H71.719V18Z" fill="white"/>
<path d="M69.3279 18H69.0818V15.8994H69.3279V18Z" fill="white"/>
<path d="M68.6068 16.1221H68.0003V18H67.7542V16.1221H67.1492V15.8994H68.6068V16.1221Z" fill="white"/>
<path d="M67.0653 18H66.7723L66.4208 17.4111C66.3885 17.3564 66.3573 17.3101 66.327 17.272C66.2968 17.2329 66.2655 17.2012 66.2333 17.1768C66.202 17.1523 66.1678 17.1348 66.1307 17.124C66.0946 17.1123 66.0536 17.1064 66.0077 17.1064H65.8055V18H65.5594V15.8994H66.1864C66.2782 15.8994 66.3627 15.9111 66.4398 15.9346C66.5179 15.957 66.5853 15.9917 66.642 16.0386C66.6996 16.0854 66.7445 16.144 66.7767 16.2144C66.809 16.2837 66.8251 16.3652 66.8251 16.459C66.8251 16.5322 66.8138 16.5996 66.7914 16.6611C66.7699 16.7217 66.7386 16.7759 66.6976 16.8237C66.6576 16.8716 66.6088 16.9126 66.5511 16.9468C66.4945 16.98 66.4305 17.0059 66.3593 17.0244V17.0303C66.3944 17.0459 66.4247 17.064 66.4501 17.0845C66.4764 17.104 66.5013 17.1274 66.5248 17.1548C66.5482 17.1821 66.5712 17.2134 66.5936 17.2485C66.6171 17.2827 66.6429 17.3228 66.6713 17.3687L67.0653 18ZM65.8055 16.1221V16.8838H66.1395C66.201 16.8838 66.2577 16.8745 66.3094 16.856C66.3622 16.8374 66.4076 16.811 66.4457 16.7769C66.4838 16.7417 66.5135 16.6992 66.535 16.6494C66.5565 16.5986 66.5673 16.542 66.5673 16.4795C66.5673 16.3672 66.5306 16.2798 66.4574 16.2173C66.3851 16.1538 66.2802 16.1221 66.1425 16.1221H65.8055Z" fill="white"/>
<path d="M64.0004 18.0352C63.7025 18.0352 63.4637 17.937 63.2841 17.7407C63.1053 17.5444 63.016 17.2891 63.016 16.9746C63.016 16.6367 63.1073 16.3672 63.2899 16.166C63.4725 15.9648 63.7211 15.8643 64.0355 15.8643C64.3256 15.8643 64.559 15.9619 64.7357 16.1572C64.9135 16.3525 65.0023 16.6079 65.0023 16.9233C65.0023 17.2661 64.9115 17.5371 64.7299 17.7363C64.5482 17.9355 64.3051 18.0352 64.0004 18.0352ZM64.0179 16.0869C63.7972 16.0869 63.618 16.1665 63.4803 16.3257C63.3427 16.4849 63.2738 16.6938 63.2738 16.9526C63.2738 17.2114 63.3407 17.4199 63.4745 17.5781C63.6093 17.7354 63.7845 17.814 64.0004 17.814C64.2308 17.814 64.4125 17.7388 64.5453 17.5884C64.6781 17.438 64.7445 17.2275 64.7445 16.957C64.7445 16.6797 64.6801 16.4653 64.5511 16.314C64.4222 16.1626 64.2445 16.0869 64.0179 16.0869Z" fill="white"/>
<path d="M61.5742 17.2061V18H61.3281V15.8994H61.9052C62.1298 15.8994 62.3036 15.9541 62.4267 16.0635C62.5507 16.1729 62.6127 16.3271 62.6127 16.5264C62.6127 16.7256 62.5439 16.8887 62.4062 17.0156C62.2695 17.1426 62.0844 17.2061 61.851 17.2061H61.5742ZM61.5742 16.1221V16.9834H61.832C62.0019 16.9834 62.1313 16.9448 62.2202 16.8677C62.31 16.7896 62.3549 16.6797 62.3549 16.5381C62.3549 16.2607 62.1909 16.1221 61.8627 16.1221H61.5742Z" fill="white"/>
<path d="M59.7485 17.2061V18H59.5024V15.8994H60.0796C60.3042 15.8994 60.478 15.9541 60.6011 16.0635C60.7251 16.1729 60.7871 16.3271 60.7871 16.5264C60.7871 16.7256 60.7183 16.8887 60.5806 17.0156C60.4438 17.1426 60.2588 17.2061 60.0254 17.2061H59.7485ZM59.7485 16.1221V16.9834H60.0063C60.1763 16.9834 60.3057 16.9448 60.3945 16.8677C60.4844 16.7896 60.5293 16.6797 60.5293 16.5381C60.5293 16.2607 60.3652 16.1221 60.0371 16.1221H59.7485Z" fill="white"/>
<path d="M58.8325 17.1504C58.8325 17.7402 58.5664 18.0352 58.0342 18.0352C57.5244 18.0352 57.2695 17.7515 57.2695 17.1841V15.8994H57.5156V17.168C57.5156 17.5986 57.6973 17.814 58.0605 17.814C58.4111 17.814 58.5864 17.606 58.5864 17.1899V15.8994H58.8325V17.1504Z" fill="white"/>
<path d="M55.46 17.915V17.625C55.4932 17.6543 55.5328 17.6807 55.5787 17.7041C55.6255 17.7275 55.6744 17.7476 55.7252 17.7642C55.7769 17.7798 55.8287 17.792 55.8804 17.8008C55.9322 17.8096 55.98 17.814 56.024 17.814C56.1754 17.814 56.2881 17.7861 56.3624 17.7305C56.4376 17.6738 56.4752 17.5928 56.4752 17.4873C56.4752 17.4307 56.4625 17.3813 56.4371 17.3394C56.4127 17.2974 56.3785 17.2593 56.3345 17.2251C56.2906 17.1899 56.2383 17.1567 56.1778 17.1255C56.1182 17.0933 56.0538 17.0596 55.9844 17.0244C55.9112 16.9873 55.8428 16.9497 55.7794 16.9116C55.7159 16.8735 55.6607 16.8315 55.6138 16.7856C55.567 16.7397 55.5298 16.688 55.5025 16.6304C55.4761 16.5718 55.463 16.5034 55.463 16.4253C55.463 16.3296 55.4839 16.2466 55.5259 16.1763C55.5679 16.105 55.6231 16.0464 55.6915 16.0005C55.7598 15.9546 55.8375 15.9204 55.9244 15.8979C56.0123 15.8755 56.1016 15.8643 56.1924 15.8643C56.3995 15.8643 56.5504 15.8892 56.6451 15.939V16.2158C56.5211 16.1299 56.3619 16.0869 56.1675 16.0869C56.1138 16.0869 56.0601 16.0928 56.0064 16.1045C55.9527 16.1152 55.9048 16.1333 55.8629 16.1587C55.8209 16.1841 55.7867 16.2168 55.7603 16.2568C55.7339 16.2969 55.7208 16.3457 55.7208 16.4033C55.7208 16.457 55.7305 16.5034 55.7501 16.5425C55.7706 16.5815 55.8004 16.6172 55.8394 16.6494C55.8785 16.6816 55.9258 16.7129 55.9815 16.7432C56.0381 16.7734 56.1031 16.8066 56.1763 16.8428C56.2515 16.8799 56.3228 16.9189 56.3902 16.96C56.4576 17.001 56.5167 17.0464 56.5674 17.0962C56.6182 17.146 56.6583 17.2012 56.6876 17.2617C56.7178 17.3223 56.733 17.3916 56.733 17.4697C56.733 17.5732 56.7125 17.6611 56.6714 17.7334C56.6314 17.8047 56.5767 17.8628 56.5074 17.9077C56.439 17.9526 56.3599 17.9849 56.2701 18.0044C56.1802 18.0249 56.0855 18.0352 55.9859 18.0352C55.9527 18.0352 55.9117 18.0322 55.8629 18.0264C55.814 18.0215 55.7642 18.0137 55.7134 18.0029C55.6627 17.9932 55.6143 17.981 55.5684 17.9663C55.5235 17.9507 55.4874 17.9336 55.46 17.915Z" fill="white"/>
<path d="M53.9225 18.7061H53.7057V15.7061H53.9225V18.7061Z" fill="white"/>
<path d="M52.1287 17.8564C51.9177 17.9756 51.6833 18.0352 51.4255 18.0352C51.1257 18.0352 50.8831 17.9385 50.6975 17.7451C50.5129 17.5518 50.4207 17.2959 50.4207 16.9775C50.4207 16.6523 50.5232 16.3857 50.7283 16.1777C50.9343 15.9688 51.1951 15.8643 51.5105 15.8643C51.739 15.8643 51.9309 15.9014 52.0862 15.9756V16.248C51.9163 16.1406 51.7151 16.0869 51.4827 16.0869C51.2473 16.0869 51.0544 16.168 50.9041 16.3301C50.7537 16.4922 50.6785 16.7021 50.6785 16.96C50.6785 17.2256 50.7483 17.4346 50.8879 17.5869C51.0276 17.7383 51.217 17.814 51.4563 17.814C51.6204 17.814 51.7625 17.7812 51.8826 17.7158V17.127H51.4226V16.9043H52.1287V17.8564Z" fill="white"/>
<path d="M49.8635 18H49.5618L48.4807 16.3257C48.4534 16.2837 48.4309 16.2397 48.4133 16.1938H48.4045C48.4124 16.2388 48.4163 16.335 48.4163 16.4824V18H48.1702V15.8994H48.4895L49.5413 17.5474C49.5852 17.6157 49.6135 17.6626 49.6262 17.688H49.6321C49.6223 17.6274 49.6174 17.5244 49.6174 17.3789V15.8994H49.8635V18Z" fill="white"/>
<path d="M47.4725 18H47.2264V15.8994H47.4725V18Z" fill="white"/>
<path d="M44.9789 18V15.8994H45.559C46.2992 15.8994 46.6693 16.2407 46.6693 16.9233C46.6693 17.2476 46.5663 17.5083 46.3602 17.7056C46.1552 17.9019 45.8802 18 45.5355 18H44.9789ZM45.225 16.1221V17.7773H45.5385C45.8138 17.7773 46.0282 17.7036 46.1815 17.5562C46.3348 17.4087 46.4115 17.1997 46.4115 16.9292C46.4115 16.3911 46.1254 16.1221 45.5531 16.1221H45.225Z" fill="white"/>
<path d="M44.2841 18H43.9823L42.9012 16.3257C42.8739 16.2837 42.8514 16.2397 42.8339 16.1938H42.8251C42.8329 16.2388 42.8368 16.335 42.8368 16.4824V18H42.5907V15.8994H42.91L43.9618 17.5474C44.0057 17.6157 44.0341 17.6626 44.0468 17.688H44.0526C44.0428 17.6274 44.038 17.5244 44.038 17.3789V15.8994H44.2841V18Z" fill="white"/>
<path d="M41.9208 17.1504C41.9208 17.7402 41.6547 18.0352 41.1225 18.0352C40.6127 18.0352 40.3578 17.7515 40.3578 17.1841V15.8994H40.6039V17.168C40.6039 17.5986 40.7856 17.814 41.1489 17.814C41.4995 17.814 41.6747 17.606 41.6747 17.1899V15.8994H41.9208V17.1504Z" fill="white"/>
<path d="M39.8418 16.1221H39.0215V16.8486H39.7803V17.0698H39.0215V18H38.7754V15.8994H39.8418V16.1221Z" fill="white"/>
<path d="M105.86 11.9395H102.599C102.651 12.6654 103.108 13.0283 103.971 13.0283C104.521 13.0283 105.004 12.8981 105.421 12.6377V13.751C104.959 13.9984 104.358 14.1221 103.619 14.1221C102.812 14.1221 102.185 13.8991 101.739 13.4531C101.293 13.0039 101.07 12.3789 101.07 11.5781C101.07 10.748 101.311 10.0905 101.793 9.60547C102.275 9.12044 102.867 8.87793 103.57 8.87793C104.299 8.87793 104.863 9.0944 105.26 9.52734C105.66 9.96029 105.86 10.5479 105.86 11.29V11.9395ZM104.43 10.9922C104.43 10.276 104.14 9.91797 103.56 9.91797C103.313 9.91797 103.098 10.0205 102.916 10.2256C102.737 10.4307 102.628 10.6862 102.589 10.9922H104.43Z" fill="white"/>
<path d="M100.464 10.3916C100.279 10.2907 100.062 10.2402 99.8151 10.2402C99.4798 10.2402 99.2177 10.3639 99.0289 10.6113C98.8401 10.8555 98.7457 11.1891 98.7457 11.6123V14H97.2028V9H98.7457V9.92773H98.7653C99.0094 9.25065 99.4489 8.91211 100.084 8.91211C100.246 8.91211 100.373 8.93164 100.464 8.9707V10.3916Z" fill="white"/>
<path d="M95.6791 14H94.141V13.2383H94.1166C93.7357 13.8275 93.2263 14.1221 92.5883 14.1221C91.4294 14.1221 90.85 13.4206 90.85 12.0176V9H92.3881V11.8809C92.3881 12.5872 92.668 12.9404 93.2279 12.9404C93.5046 12.9404 93.726 12.8444 93.892 12.6523C94.058 12.457 94.141 12.1934 94.141 11.8613V9H95.6791V14Z" fill="white"/>
<path d="M89.834 13.9414C89.6062 14.0618 89.2628 14.1221 88.8038 14.1221C87.7165 14.1221 87.1729 13.5573 87.1729 12.4277V10.1377H86.3624V9H87.1729V7.9209L88.711 7.48145V9H89.834V10.1377H88.711V12.1592C88.711 12.68 88.9177 12.9404 89.3311 12.9404C89.4939 12.9404 89.6615 12.8932 89.834 12.7988V13.9414Z" fill="white"/>
<path d="M85.366 14H83.8279V11.2217C83.8279 10.4469 83.5512 10.0596 82.9979 10.0596C82.7309 10.0596 82.5112 10.1621 82.3387 10.3672C82.1662 10.5723 82.0799 10.8327 82.0799 11.1484V14H80.5369V9H82.0799V9.79102H82.0994C82.4673 9.18229 83.0027 8.87793 83.7059 8.87793C84.8126 8.87793 85.366 9.56478 85.366 10.9385V14Z" fill="white"/>
<path d="M79.3989 11.9395H76.1372C76.1893 12.6654 76.6466 13.0283 77.5093 13.0283C78.0594 13.0283 78.5428 12.8981 78.9595 12.6377V13.751C78.4972 13.9984 77.8966 14.1221 77.1577 14.1221C76.3504 14.1221 75.7238 13.8991 75.2778 13.4531C74.8319 13.0039 74.6089 12.3789 74.6089 11.5781C74.6089 10.748 74.8498 10.0905 75.3315 9.60547C75.8133 9.12044 76.4058 8.87793 77.1089 8.87793C77.8381 8.87793 78.4012 9.0944 78.7983 9.52734C79.1987 9.96029 79.3989 10.5479 79.3989 11.29V11.9395ZM77.9683 10.9922C77.9683 10.276 77.6785 9.91797 77.0991 9.91797C76.8517 9.91797 76.6369 10.0205 76.4546 10.2256C76.2756 10.4307 76.1665 10.6862 76.1274 10.9922H77.9683Z" fill="white"/>
<path d="M74.6526 6.99805L72.2405 14H70.4534L68.0706 6.99805H69.7698L71.2297 11.8711C71.3079 12.1348 71.3551 12.3675 71.3713 12.5693H71.4006C71.4234 12.3512 71.4739 12.112 71.552 11.8516L73.0022 6.99805H74.6526Z" fill="white"/>
<path d="M60.736 13.8682V12.6182C60.9899 12.7712 61.2422 12.8851 61.4929 12.96C61.7468 13.0348 61.986 13.0723 62.2106 13.0723C62.4841 13.0723 62.6989 13.0348 62.8552 12.96C63.0147 12.8851 63.0944 12.7712 63.0944 12.6182C63.0944 12.5205 63.0586 12.4391 62.987 12.374C62.9154 12.3089 62.8226 12.252 62.7087 12.2031C62.598 12.1543 62.4759 12.1104 62.3425 12.0713C62.209 12.0322 62.0804 11.9883 61.9567 11.9395C61.7582 11.8646 61.5824 11.7848 61.4294 11.7002C61.2796 11.6123 61.1527 11.5114 61.0485 11.3975C60.9476 11.2835 60.8695 11.1517 60.8141 11.002C60.7621 10.8522 60.736 10.6748 60.736 10.4697C60.736 10.1898 60.7962 9.94889 60.9167 9.74707C61.0404 9.54525 61.2031 9.38086 61.405 9.25391C61.61 9.1237 61.8428 9.0293 62.1032 8.9707C62.3669 8.90885 62.6403 8.87793 62.9235 8.87793C63.1449 8.87793 63.3695 8.89583 63.5974 8.93164C63.8252 8.96419 64.0498 9.01302 64.2712 9.07812V10.2695C64.0759 10.1556 63.8659 10.071 63.6413 10.0156C63.4199 9.95703 63.2018 9.92773 62.987 9.92773C62.8861 9.92773 62.7901 9.9375 62.6989 9.95703C62.611 9.97331 62.5329 9.99935 62.4645 10.0352C62.3962 10.0677 62.3425 10.1117 62.3034 10.167C62.2643 10.2191 62.2448 10.2793 62.2448 10.3477C62.2448 10.4388 62.2741 10.5169 62.3327 10.582C62.3913 10.6471 62.4678 10.7041 62.5622 10.7529C62.6566 10.7985 62.7608 10.8408 62.8747 10.8799C62.9919 10.9157 63.1074 10.9531 63.2214 10.9922C63.4265 11.0638 63.612 11.1419 63.778 11.2266C63.944 11.3112 64.0856 11.4105 64.2028 11.5244C64.3233 11.6383 64.4144 11.7718 64.4763 11.9248C64.5414 12.0778 64.5739 12.2601 64.5739 12.4717C64.5739 12.7679 64.5088 13.0218 64.3786 13.2334C64.2516 13.4417 64.0807 13.6126 63.8659 13.7461C63.6543 13.8763 63.4085 13.9707 63.1286 14.0293C62.8519 14.0911 62.5638 14.1221 62.2643 14.1221C61.7142 14.1221 61.2048 14.0374 60.736 13.8682Z" fill="white"/>
<path d="M59.9691 13.9414C59.7413 14.0618 59.3978 14.1221 58.9388 14.1221C57.8516 14.1221 57.308 13.5573 57.308 12.4277V10.1377H56.4974V9H57.308V7.9209L58.8461 7.48145V9H59.9691V10.1377H58.8461V12.1592C58.8461 12.68 59.0528 12.9404 59.4662 12.9404C59.6289 12.9404 59.7966 12.8932 59.9691 12.7988V13.9414Z" fill="white"/>
<path d="M55.5011 14H53.963V11.2217C53.963 10.4469 53.6863 10.0596 53.1329 10.0596C52.866 10.0596 52.6463 10.1621 52.4738 10.3672C52.3012 10.5723 52.215 10.8327 52.215 11.1484V14H50.672V9H52.215V9.79102H52.2345C52.6023 9.18229 53.1378 8.87793 53.8409 8.87793C54.9477 8.87793 55.5011 9.56478 55.5011 10.9385V14Z" fill="white"/>
<path d="M49.5341 11.9395H46.2723C46.3244 12.6654 46.7818 13.0283 47.6444 13.0283C48.1945 13.0283 48.6779 12.8981 49.0946 12.6377V13.751C48.6324 13.9984 48.0318 14.1221 47.2928 14.1221C46.4856 14.1221 45.8589 13.8991 45.413 13.4531C44.967 13.0039 44.744 12.3789 44.744 11.5781C44.744 10.748 44.9849 10.0905 45.4667 9.60547C45.9484 9.12044 46.5409 8.87793 47.244 8.87793C47.9732 8.87793 48.5363 9.0944 48.9335 9.52734C49.3339 9.96029 49.5341 10.5479 49.5341 11.29V11.9395ZM48.1034 10.9922C48.1034 10.276 47.8137 9.91797 47.2343 9.91797C46.9869 9.91797 46.772 10.0205 46.5897 10.2256C46.4107 10.4307 46.3016 10.6862 46.2626 10.9922H48.1034Z" fill="white"/>
<path d="M43.523 14H41.98V6.59766H43.523V14Z" fill="white"/>
<path d="M40.5393 14H39.0793V13.2822H39.0598C38.7245 13.8421 38.2281 14.1221 37.5706 14.1221C37.0855 14.1221 36.703 13.9854 36.4231 13.7119C36.1464 13.4352 36.0081 13.0674 36.0081 12.6084C36.0081 11.6383 36.5826 11.0785 37.7317 10.9287L39.0891 10.748C39.0891 10.2012 38.7929 9.92773 38.2004 9.92773C37.6047 9.92773 37.0383 10.1051 36.5012 10.46V9.29785C36.7161 9.18717 37.009 9.08952 37.3801 9.00488C37.7545 8.92025 38.0946 8.87793 38.4006 8.87793C39.8264 8.87793 40.5393 9.58919 40.5393 11.0117V14ZM39.0891 11.9688V11.6318L38.1809 11.749C37.6796 11.8141 37.429 12.0404 37.429 12.4277C37.429 12.6035 37.4892 12.7484 37.6096 12.8623C37.7333 12.973 37.8993 13.0283 38.1077 13.0283C38.3974 13.0283 38.6334 12.929 38.8157 12.7305C38.998 12.5286 39.0891 12.2747 39.0891 11.9688Z" fill="white"/>
<path d="M36.2178 8.28223H34.2207V14H32.6387V8.28223H30.6514V6.99805H36.2178V8.28223Z" fill="white"/>
</svg>
